<?xml version="1.0" standalone="no"?><!DOCTYPE svg PUBLIC "-//W3C//DTD SVG 1.1//EN" "http://www.w3.org/Graphics/SVG/1.1/DTD/svg11.dtd"><svg t="1505120919948" class="icon" style="" viewBox="0 0 1024 1024" version="1.1" xmlns="http://www.w3.org/2000/svg" p-id="6525" xmlns:xlink="http://www.w3.org/1999/xlink" width="200" height="200"><defs><style type="text/css"></style></defs><path d="M902.83008 636.26752a46.02368 46.02368 0 0 0 13.46048-32.52224V185.02144a45.69088 45.69088 0 0 0-13.51168-32.49664 45.78304 45.78304 0 0 0-32.54784-13.51168h-611.84a45.9776 45.9776 0 0 0-32.58368 13.51168 45.80352 45.80352 0 0 0-13.47072 32.49664v48.86528a20.64384 20.64384 0 0 1-6.15424 14.76608 20.90496 20.90496 0 0 1-14.70464 6.10304 20.64384 20.64384 0 0 1-14.77632-6.15424 20.8384 20.8384 0 0 1-6.13888-14.74048v-48.8448c0-24.18688 9.86624-46.1568 25.76384-62.0544a87.552 87.552 0 0 1 62.06464-25.73824h611.84c24.21248 0 46.18752 9.84576 62.08 25.73824a87.66464 87.66464 0 0 1 25.73824 62.0544v418.72896c0 24.18176-9.87136 46.1568-25.73824 62.04928a87.58272 87.58272 0 0 1-62.08 25.73824h-11.776a21.15584 21.15584 0 0 1-14.79168-6.09792 20.90496 20.90496 0 0 1-6.10304-14.76608c0-5.70368 2.33472-10.92608 6.15424-14.7968a20.864 20.864 0 0 1 14.74048-6.07744h11.776c12.68224 0.01024 24.20736-5.19168 32.59904-13.52704z m-150.57408-375.63392a79.7184 79.7184 0 0 1 56.40192 23.35744 79.616 79.616 0 0 1 23.35744 56.40704v416.86528c0 22.02624-8.93952 42.01472-23.40352 56.40704a79.5136 79.5136 0 0 1-56.35072 23.37792h-191.75936L485.1968 912.3328a53.9648 53.9648 0 0 1-17.64352 11.78112c-6.53824 2.70848-13.58336 4.1472-20.79232 4.1472-7.18336 0-14.22336-1.4336-20.78208-4.1472a53.82144 53.82144 0 0 1-17.65376-11.78112l-75.32544-75.28448H142.20288c-19.31264 0-37.0688-6.95296-50.9184-18.4576a79.52896 79.52896 0 0 1-27.45856-46.81216l-0.23552-1.2288V327.13216l0.23552-1.25952a79.55968 79.55968 0 0 1 27.45856-46.78144 79.48288 79.48288 0 0 1 50.9184-18.4576h610.05312zM142.20288 795.27936h208.07168l87.5776 87.49568c1.2288 1.2544 2.62656 2.21184 4.08064 2.78528 1.44384 0.60416 3.09248 0.90624 4.82304 0.90624 1.72032 0 3.36384-0.30208 4.80768-0.90624a12.0832 12.0832 0 0 0 4.06528-2.78528l87.5776-87.49568h209.03936a38.0416 38.0416 0 0 0 37.96992-38.02112V340.39296a37.86752 37.86752 0 0 0-11.12576-26.82368 37.82144 37.82144 0 0 0-26.84416-11.15136H142.20288c-10.496 0-19.97824 4.27008-26.83392 11.15136a37.7856 37.7856 0 0 0-11.12576 26.82368v416.86528a38.00064 38.00064 0 0 0 37.95968 38.02112z m139.40224-282.0608a50.93376 50.93376 0 0 0-35.59936-14.74048 51.0464 51.0464 0 0 0-35.62496 14.74048 50.97984 50.97984 0 0 0-14.71488 35.6096c0 13.2096 5.39648 26.32192 14.71488 35.6352a51.0208 51.0208 0 0 0 35.62496 14.74048 50.944 50.944 0 0 0 35.59936-14.74048 50.98496 50.98496 0 0 0 14.75072-35.6352 51.01568 51.01568 0 0 0-14.75072-35.6096z m201.8048 0a50.96448 50.96448 0 0 0-35.59936-14.74048 50.96448 50.96448 0 0 0-35.6096 14.74048 50.944 50.944 0 0 0-14.72512 35.6096c0 13.2096 5.39648 26.32192 14.72512 35.6352a50.944 50.944 0 0 0 35.6096 14.74048 50.96448 50.96448 0 0 0 35.59936-14.74048 50.944 50.944 0 0 0 14.75072-35.6352 50.9696 50.9696 0 0 0-14.75072-35.6096z m201.78944 0a50.8928 50.8928 0 0 0-35.57888-14.74048 50.97984 50.97984 0 0 0-35.6096 14.74048 51.01056 51.01056 0 0 0-14.7456 35.6096c0 13.2096 5.4272 26.32192 14.7456 35.6352a50.95936 50.95936 0 0 0 35.6096 14.74048 50.8928 50.8928 0 0 0 35.57888-14.74048 50.8928 50.8928 0 0 0 14.7712-35.6352c0-13.18912-5.4272-26.2656-14.7712-35.6096z" p-id="6526"></path></svg>