<?xml version="1.0" standalone="no"?><!DOCTYPE svg PUBLIC "-//W3C//DTD SVG 1.1//EN" "http://www.w3.org/Graphics/SVG/1.1/DTD/svg11.dtd"><svg t="1504095228711" class="icon" style="" viewBox="0 0 1024 1024" version="1.1" xmlns="http://www.w3.org/2000/svg" p-id="2656" xmlns:xlink="http://www.w3.org/1999/xlink" width="200" height="200"><defs><style type="text/css"></style></defs><path d="M635.707475 964.817455c-10.265859 0-18.618182-8.352323-18.618182-18.616889v-115.639596c0-10.264566 8.352323-18.616889 18.618182-18.616889 10.199919 0 18.552242 8.380768 18.618182 18.684121v115.573657c0 10.263273-8.352323 18.615596-18.618182 18.615596z m-231.382627 0c-10.264566 0-18.618182-8.352323-18.618181-18.616889v-115.639596c0-10.264566 8.353616-18.616889 18.618181-18.616889 10.265859 0 18.618182 8.352323 18.618182 18.616889v115.639596c0 10.264566-8.352323 18.616889-18.618182 18.616889z m113.364041-424.701415c-70.83701 0-128.465455-57.629737-128.465455-128.465454s57.628444-128.465455 128.465455-128.465455c70.835717 0 128.464162 57.629737 128.464162 128.465455 0.001293 70.835717-57.627152 128.465455-128.464162 128.465454z m0-219.901414c-50.360889 0-91.333818 40.971636-91.333818 91.332526s40.971636 91.332525 91.333818 91.332525c50.359596 0 91.331232-40.971636 91.331232-91.332525s-40.970343-91.332525-91.331232-91.332526z" p-id="2657"></path><path d="M194.558707 909.065051c-10.264566 0-18.616889-8.352323-18.616889-18.616889 0-93.729616 39.480889-184.08598 108.342303-247.964445 0.408566-0.298667 0.98004-0.743434 1.578667-1.34206l4.000323-4.001617-1.210182-5.525979c-9.587071-43.773414-14.51701-83.934384-15.070384-122.777859-0.879192-62.151111 10.444283-123.836768 33.653657-183.345131 18.73196-48.024566 45.235717-94.831192 78.778182-139.120485 57.320727-75.688081 116.189091-118.997333 122.714505-123.686788 3.185778-2.289778 6.918465-3.501253 10.794667-3.501253 3.721051 0 7.334788 1.12097 10.448161 3.240081 6.825374 4.662303 68.525253 47.847434 127.517738 123.986748 34.390626 44.386263 61.066343 91.301495 79.288888 139.443717 22.570667 59.628606 32.210747 121.460364 28.652606 183.780848-2.442343 42.545131-8.595394 86.472404-18.289777 130.558707l-1.210182 5.505293 3.969293 4.001617c63.097535 63.596606 97.957495 148.114101 98.157899 237.980444 0 10.243879-8.352323 18.596202-18.618182 18.596202s-18.618182-8.352323-18.618182-18.618182c0-67.048727-21.744485-130.545778-62.882909-183.623111l-12.329374-15.908202-5.757414 19.285333c-5.144566 17.229576-9.634909 31.290182-14.135596 44.250505A18.545778 18.545778 0 0 1 698.181818 764.157414H538.687354v109.847273c0 10.264566-8.352323 18.616889-18.618182 18.616889s-18.618182-8.352323-18.618182-18.616889v-109.847273H341.02303c-7.886869 0-14.934626-5.025616-17.537293-12.503919-6.882263-19.819313-12.794828-37.987556-18.067394-55.533899l-5.382464-17.912242-12.30998 14.081292C239.652202 747.273051 213.178182 817.647192 213.178182 890.448162c0 10.265859-8.35103 18.616889-18.619475 18.616889zM519.964444 667.340283c10.265859 0 18.618182 8.352323 18.618182 18.618182v40.96h146.221253l2.322101-7.149899c23.549414-72.539798 37.390222-143.965091 41.138424-212.287354 12.008727-211.792162-151.515798-360.596687-201.919353-401.158465l-6.630142-5.335919-6.512485 5.478142c-48.280566 40.609616-205.568 189.605495-202.484363 401.839838 1.115798 82.697051 23.977374 160.338747 41.077656 211.546505l2.359596 7.067152H501.346263v-40.96c0-10.267152 8.352323-18.618182 18.618181-18.618182z" p-id="2658"></path></svg>