<?xml version="1.0" standalone="no"?><!DOCTYPE svg PUBLIC "-//W3C//DTD SVG 1.1//EN" "http://www.w3.org/Graphics/SVG/1.1/DTD/svg11.dtd"><svg t="1505981259789" class="icon" style="" viewBox="0 0 1024 1024" version="1.1" xmlns="http://www.w3.org/2000/svg" p-id="7936" xmlns:xlink="http://www.w3.org/1999/xlink" width="200" height="200"><defs><style type="text/css"></style></defs><path d="M700.401 943.437H132.129c-34.503 0-68.958-13.851-92.173-37.116C14.719 881.133 0.228 848.503 0.228 816.711V207.922c0-31.694 14.442-64.324 39.63-89.61 23.265-23.265 57.769-37.116 92.272-37.116h568.222c33.025 0 62.303 12.471 86.998 37.067 22.92 22.92 34.503 53.086 34.503 89.66v60.874c0 13.949-11.288 25.237-25.237 25.237s-25.237-11.288-25.237-25.237v-60.874c0-23.019-6.457-40.665-19.716-53.924-15.083-14.984-31.842-22.329-51.312-22.329H132.129c-21.392 0-42.538 8.379-56.536 22.329-15.773 15.872-24.892 35.539-24.892 53.924v608.788c0 18.435 9.119 38.102 24.941 53.875 13.801 13.801 35.44 22.378 56.487 22.378H700.4c19.47 0 36.229-7.295 51.262-22.329 13.259-13.259 19.716-30.856 19.716-53.924v-60.874c0-13.949 11.288-25.237 25.237-25.237s25.237 11.288 25.237 25.237v60.874c0 36.623-11.583 66.789-34.503 89.66-24.251 24.25-54.318 37.066-86.948 37.066z" p-id="7937"></path><path d="M973.752 538.652h-630.92c-13.932 0-25.237-11.305-25.237-25.237 0-13.931 11.305-25.237 25.237-25.237h630.92c13.955 0 25.237 11.305 25.237 25.237-0.001 13.931-11.282 25.237-25.237 25.237z" p-id="7938"></path><path d="M860.743 682.344a25.155 25.155 0 0 1-17.843-7.394c-9.858-9.858-9.858-25.828 0-35.686l126.874-126.923L842.9 385.418c-9.858-9.858-9.858-25.828 0-35.686s25.828-9.858 35.686 0l133.627 133.627c16.019 15.97 16.019 41.996 0 57.966L878.586 674.951a25.154 25.154 0 0 1-17.843 7.393z" p-id="7939"></path></svg>