<?xml version="1.0" standalone="no"?><!DOCTYPE svg PUBLIC "-//W3C//DTD SVG 1.1//EN" "http://www.w3.org/Graphics/SVG/1.1/DTD/svg11.dtd"><svg t="1505981382610" class="icon" style="" viewBox="0 0 1024 1024" version="1.1" xmlns="http://www.w3.org/2000/svg" p-id="11591" xmlns:xlink="http://www.w3.org/1999/xlink" width="200" height="200"><defs><style type="text/css"></style></defs><path d="M868.270193 882.081757c0 6.379291-5.190209 11.570523-11.570523 11.570523L118.868271 893.65228c-6.380314 0-11.570523-5.190209-11.570523-11.570523L107.297748 152.243403c0-6.380314 5.190209-11.570523 11.570523-11.570523l539.771507 0 0.690732-41.6107L91.451852 99.06218c-13.923104 0-25.251104 11.326976-25.251104 25.251104l0 785.700639c0 13.922081 11.326976 25.25008 25.251104 25.25008l791.639908 0c13.923104 0 25.251104-11.326976 25.251104-25.25008L908.342864 466.599997l-40.072671-0.041956L868.270193 882.081757z" p-id="11592"></path><path d="M962.595488 248.420883c-1.343601-20.519336-15.832594-34.614355-20.069081-38.319747l-33.17968-35.670407-0.327458-0.350994-39.724747-37.683251-0.25992-0.240477c-29.600155-26.807552-61.899792-11.721973-74.843592 0l-0.303922 0.275269-72.991408 73.563436L382.00839 549.004799l-0.283456-0.110517-0.249687 0.64366-1.694595 1.695618 0.743944 0.7552-93.28664 240.409418 242.642273-88.686878 0.795109 0.808412 1.729387-1.730411 0.410346-0.150426-0.069585-0.191358L883.567597 351.277482l-0.085958-0.085958 62.847373-62.847373 0.278339-0.285502C960.976618 272.921903 963.233008 258.148431 962.595488 248.420883zM340.387457 740.28631l63.755046-164.303067 102.07377 103.691617L340.387457 740.28631zM530.833951 660.921751 423.021479 551.400359l308.696688-308.809251 108.466364 108.676142L530.833951 660.921751zM924.470169 266.788206l-62.674435 62.674435-108.414175-108.623953 61.591777-62.072731c0.893346-0.725524 5.155417-4.012384 10.906397-5.748934 8.167007-2.463098 15.292288-0.624217 22.426779 5.783727l38.888705 36.890188 34.198893 36.766368 0.842181 0.682545c0.091074 0.073678 9.112542 7.930623 9.726525 17.289782C932.308695 255.717056 929.8589 261.069971 924.470169 266.788206z" p-id="11593"></path></svg>