<?xml version="1.0" standalone="no"?><!DOCTYPE svg PUBLIC "-//W3C//DTD SVG 1.1//EN" "http://www.w3.org/Graphics/SVG/1.1/DTD/svg11.dtd"><svg t="1505981423850" class="icon" style="" viewBox="0 0 1024 1024" version="1.1" xmlns="http://www.w3.org/2000/svg" p-id="12266" xmlns:xlink="http://www.w3.org/1999/xlink" width="200" height="200"><defs><style type="text/css"></style></defs><path d="M441.28 360.192c116.416 0 237.44-25.6 310.016-74.368v88.832h67.264v-194.56C818.56 63.104 624.192 0 441.28 0 258.368 0 64 63.104 64 180.096v530.816c0 116.992 194.368 180.096 377.28 180.096v-67.264c-192 0-310.016-65.728-310.016-112.832V551.296c72.704 48.704 193.664 74.304 310.016 74.304V558.336c-192 0-310.016-65.728-310.016-112.832V285.824c72.64 48.768 193.6 74.368 310.016 74.368z m0-292.928c192.064 0 310.016 65.728 310.016 112.832S633.344 292.864 441.28 292.864c-192 0-310.016-65.664-310.016-112.768s117.952-112.832 310.016-112.832z m301.632 329.664c-167.04 0-254.528 64.32-254.528 127.808v341.12c0 63.488 87.424 127.744 254.528 127.744 165.76 0 253.12-63.36 254.4-126.336V524.736c0-63.488-87.36-127.744-254.4-127.744z m0 67.328c123.52 0 187.136 42.368 187.136 60.48 0 18.048-63.68 60.416-187.136 60.416-123.52 0-187.2-42.368-187.2-60.416 0-18.112 63.68-60.48 187.2-60.48z m0 462.08c-123.52 0-187.2-42.432-187.2-60.544v-81.408c42.688 23.168 105.344 38.656 187.2 38.656 81.792 0 144.448-15.488 187.136-38.656v81.408c0 18.112-63.68 60.48-187.136 60.48z m0-170.624c-123.52 0-187.2-42.368-187.2-60.48V613.824c42.688 23.168 105.344 38.656 187.2 38.656 81.792 0 144.448-15.424 187.136-38.656v81.472c0 18.048-63.68 60.416-187.136 60.416z" p-id="12267"></path></svg>