<?xml version="1.0" standalone="no"?><!DOCTYPE svg PUBLIC "-//W3C//DTD SVG 1.1//EN" "http://www.w3.org/Graphics/SVG/1.1/DTD/svg11.dtd"><svg t="1502608897355" class="icon" style="" viewBox="0 0 1024 1024" version="1.1" xmlns="http://www.w3.org/2000/svg" p-id="3525" xmlns:xlink="http://www.w3.org/1999/xlink" width="200" height="200"><defs><style type="text/css"></style></defs><path d="M510.72 510.72 314.88 510.72c-107.52 0-195.84-88.32-195.84-195.84 0-107.52 88.32-195.84 195.84-195.84s195.84 88.32 195.84 195.84L510.72 510.72zM314.88 144.64c-93.44 0-170.24 76.8-170.24 170.24 0 93.44 76.8 170.24 170.24 170.24l170.24 0L485.12 314.88C485.12 221.44 409.6 144.64 314.88 144.64z" p-id="3526"></path><path d="M314.88 913.92c-107.52 0-195.84-88.32-195.84-195.84 0-107.52 88.32-195.84 195.84-195.84l195.84 0 0 195.84C510.72 826.88 423.68 913.92 314.88 913.92zM314.88 549.12c-93.44 0-170.24 76.8-170.24 170.24 0 93.44 76.8 170.24 170.24 170.24 93.44 0 170.24-76.8 170.24-170.24L485.12 549.12 314.88 549.12z" p-id="3527"></path><path d="M719.36 510.72 523.52 510.72 523.52 314.88c0-107.52 88.32-195.84 195.84-195.84s195.84 88.32 195.84 195.84C915.2 423.68 826.88 510.72 719.36 510.72zM549.12 485.12l170.24 0c93.44 0 170.24-76.8 170.24-170.24 0-93.44-76.8-170.24-170.24-170.24s-170.24 76.8-170.24 170.24L549.12 485.12z" p-id="3528"></path><path d="M536.32 719.36" p-id="3529"></path><path d="M719.36 913.92c-107.52 0-195.84-88.32-195.84-195.84L523.52 523.52l195.84 0c107.52 0 195.84 88.32 195.84 195.84C915.2 826.88 826.88 913.92 719.36 913.92zM549.12 549.12l0 170.24c0 93.44 76.8 170.24 170.24 170.24s170.24-76.8 170.24-170.24c0-93.44-76.8-170.24-170.24-170.24L549.12 549.12z" p-id="3530"></path></svg>