<?xml version="1.0" standalone="no"?><!DOCTYPE svg PUBLIC "-//W3C//DTD SVG 1.1//EN" "http://www.w3.org/Graphics/SVG/1.1/DTD/svg11.dtd"><svg t="1502621994400" class="icon" style="" viewBox="0 0 1024 1024" version="1.1" xmlns="http://www.w3.org/2000/svg" p-id="20349" xmlns:xlink="http://www.w3.org/1999/xlink" width="200" height="200"><defs><style type="text/css"></style></defs><path d="M523.644928 343.502848c0.698368-25.112576 3.647488-44.21632 8.892416-57.315328 5.257216-13.092864 13.615104-24.764416 25.11872-35.090432 11.505664-10.266624 24.348672-17.864704 38.496256-22.759424 14.118912-4.864 29.05088-7.317504 44.756992-7.317504 31.75424 0 58.167296 9.353216 79.276032 28.0064 21.137408 18.663424 31.6928 43.548672 31.6928 74.604544 0 13.959168-2.73408 26.611712-8.105984 37.955584-5.433344 11.3152-16.93696 25.464832-34.553856 42.377216-17.64352 16.939008-29.335552 28.98944-35.096576 36.139008-5.752832 7.151616-10.104832 15.70816-13.090816 25.624576-2.957312 9.945088-4.265984 23.298048-3.915776 40.052736L616.30464 505.780224c0-19.521536 1.548288-35.129344 4.70016-46.854144 3.147776-11.671552 6.961152-21.907456 11.513856-30.615552 4.54656-8.708096 15.0016-21.549056 31.40608-38.465536 16.398336-16.943104 28.188672-29.237248 35.340288-36.907008 7.159808-7.688192 10.743808-19.451904 10.743808-35.340288 0-15.867904-5.941248-29.917184-17.823744-42.149888-11.862016-12.210176-29.315072-18.313216-52.3264-18.313216-50.987008 0-76.447744 28.798976-76.447744 86.366208L523.644928 343.5008 523.644928 343.502848 523.644928 343.502848zM615.254016 548.18816l45.545472 0 0 48.156672-45.545472 0L615.254016 548.18816 615.254016 548.18816zM615.254016 548.18816" p-id="20350"></path><path d="M763.06432 804.040704l-106.170368-77.01504L356.184064 727.025664c-45.27104 0-82.079744-36.810752-82.079744-82.0736L274.10432 191.172608c0-45.266944 36.808704-82.0736 82.079744-82.0736l559.878144 0c45.262848 0 82.071552 36.806656 82.071552 82.0736l0 453.777408c0 45.264896-36.810752 82.0736-82.071552 82.0736l-93.304832 0L763.06432 804.040704 763.06432 804.040704 763.06432 804.040704zM356.184064 140.89216c-27.748352 0-50.286592 22.530048-50.286592 50.280448l0 453.777408c0 27.7504 22.53824 50.286592 50.286592 50.286592l311.015424 0 89.602048 64.999424 50.386944-64.999424 108.875776 0c27.74016 0 50.286592-22.536192 50.286592-50.286592L966.350848 191.172608c0-27.7504-22.546432-50.280448-50.286592-50.280448L356.184064 140.89216 356.184064 140.89216 356.184064 140.89216zM356.184064 140.89216" p-id="20351"></path><path d="M195.465216 878.743552l-45.012992-58.103808L84.107264 820.639744c-35.500032 0-64.397312-28.899328-64.397312-64.438272L19.709952 423.479296c0-35.510272 28.89728-64.43008 64.397312-64.43008l221.790208 0 0 285.9008c0 27.7504 22.53824 50.286592 50.286592 50.286592l202.899456 0 0 60.966912c0 35.538944-28.889088 64.438272-64.405504 64.438272l-219.11552 0L195.465216 878.743552 195.465216 878.743552 195.465216 878.743552zM84.107264 390.834176c-17.993728 0-32.612352 14.649344-32.612352 32.64512l0 332.722176c0 17.993728 14.620672 32.651264 32.612352 32.651264l81.922048 0 35.690496 46.086144 63.526912-46.086144 229.433344 0c17.993728 0 32.6144-14.657536 32.6144-32.651264l0-29.177856-171.108352 0c-45.27104 0-82.079744-36.810752-82.079744-82.0736l0-254.11584L84.107264 390.834176 84.107264 390.834176 84.107264 390.834176zM84.107264 390.834176" p-id="20352"></path></svg>