<?xml version="1.0" standalone="no"?><!DOCTYPE svg PUBLIC "-//W3C//DTD SVG 1.1//EN" "http://www.w3.org/Graphics/SVG/1.1/DTD/svg11.dtd"><svg t="1502623021844" class="icon" style="" viewBox="0 0 1024 1024" version="1.1" xmlns="http://www.w3.org/2000/svg" p-id="47612" xmlns:xlink="http://www.w3.org/1999/xlink" width="200" height="200"><defs><style type="text/css"></style></defs><path d="M26.03905 830.617641c-13.068643 0-23.699772-10.635221-23.699772-23.705911L2.339278 150.119019c0-9.91379 6.250354-18.860557 15.554254-22.26305 17.903765-6.54916 113.952308-39.22128 246.816339-39.22128 85.039815 0 168.751379 13.164834 248.807692 39.128159 9.803273 3.177366 16.391319 12.242835 16.391319 22.557762l0 651.54929c0 13.074783-10.627035 23.712051-23.688515 23.713075-1.753947 0-3.514033-0.196475-5.230118-0.583285-29.358655-6.622838-134.342708-28.230971-252.547877-28.230971-83.833337 0-155.895583 10.894118-214.184127 32.379455C31.608905 830.123384 28.843932 830.617641 26.03905 830.617641zM38.154995 158.714791l0 631.18652c59.110259-19.21462 129.748063-28.947286 210.285331-28.947286 106.758466 0 203.039299 17.08512 245.651816 25.918299L494.092142 159.169139c-73.942059-23.042809-151.062508-34.717709-229.383294-34.717709C151.508669 124.450407 67.024509 149.034315 38.154995 158.714791zM519.085372 830.617641c-13.068643 0-23.699772-10.635221-23.699772-23.705911L495.385601 150.119019c0-9.914814 6.251378-18.862603 15.556301-22.26305 17.901719-6.548136 113.949238-39.22128 246.813269-39.22128 85.040838 0 168.750355 13.164834 248.807692 39.128159 9.80225 3.176342 16.392342 12.241812 16.392342 22.557762l0 651.54929c0 13.074783-10.627035 23.712051-23.688515 23.713075-1.753947 0-3.514033-0.196475-5.230118-0.584308-29.358655-6.621814-134.343731-28.229948-252.5489-28.229948-83.83436 0-155.896606 10.894118-214.18515 32.379455C524.657274 830.123384 521.892301 830.617641 519.085372 830.617641zM531.201318 158.714791l0 631.185496c59.112306-19.215644 129.748063-28.947286 210.285331-28.947286 106.757442 0 203.038276 17.08512 245.652839 25.918299L987.139487 159.169139c-73.944106-23.042809-151.062508-34.718733-229.383294-34.718733C644.554992 124.450407 560.070832 149.034315 531.201318 158.714791zM115.552759 300.157197l-0.00921-0.033769c-2.607384-9.897418 3.590781-19.956517 13.602809-22.084994 18.148335-3.858888 48.491411-9.460466 85.293595-12.960173 71.809489-6.828522 134.898363-2.803859 187.886181 11.955286 9.945513 2.77009 15.548114 13.291724 12.214183 23.062252l0 0c-3.052522 8.947789-12.547781 14.028505-21.656229 11.496845-97.596805-27.128871-213.787084-7.42818-256.30034 1.52575C127.236869 315.086212 117.986181 309.394582 115.552759 300.157197zM115.552759 446.277136l-0.00921-0.033769c-2.607384-9.897418 3.590781-19.956517 13.602809-22.084994 18.148335-3.858888 48.491411-9.460466 85.293595-12.960173 71.809489-6.828522 134.898363-2.803859 187.886181 11.955286 9.945513 2.77009 15.548114 13.291724 12.214183 23.062252l0 0c-3.052522 8.947789-12.547781 14.028505-21.656229 11.496845-97.596805-27.128871-213.787084-7.42818-256.30034 1.52575C127.236869 461.207174 117.986181 455.514521 115.552759 446.277136zM115.552759 581.346391l-0.00921-0.033769c-2.607384-9.897418 3.590781-19.956517 13.602809-22.084994 18.148335-3.858888 48.491411-9.460466 85.293595-12.960173 71.809489-6.828522 134.898363-2.803859 187.886181 11.955286 9.945513 2.77009 15.548114 13.291724 12.214183 23.062252l0 0c-3.052522 8.947789-12.547781 14.028505-21.656229 11.496845-97.596805-27.128871-213.787084-7.42818-256.30034 1.52575C127.236869 596.276429 117.986181 590.583776 115.552759 581.346391zM609.496521 300.157197l-0.00921-0.033769c-2.607384-9.897418 3.590781-19.956517 13.602809-22.084994 18.148335-3.858888 48.491411-9.460466 85.294618-12.960173 71.809489-6.828522 134.898363-2.803859 187.886181 11.955286 9.945513 2.77009 15.548114 13.291724 12.214183 23.062252l0 0c-3.052522 8.947789-12.547781 14.028505-21.656229 11.496845-97.596805-27.128871-213.787084-7.42818-256.30034 1.52575C621.180632 315.086212 611.929943 309.394582 609.496521 300.157197zM609.496521 446.277136l-0.00921-0.033769c-2.607384-9.897418 3.590781-19.956517 13.602809-22.084994 18.148335-3.858888 48.491411-9.460466 85.294618-12.960173 71.809489-6.828522 134.898363-2.803859 187.886181 11.955286 9.945513 2.77009 15.548114 13.291724 12.214183 23.062252l0 0c-3.052522 8.947789-12.547781 14.028505-21.656229 11.496845-97.596805-27.128871-213.787084-7.42818-256.30034 1.52575C621.180632 461.207174 611.929943 455.514521 609.496521 446.277136zM609.496521 581.346391l-0.00921-0.033769c-2.607384-9.897418 3.590781-19.956517 13.602809-22.084994 18.148335-3.858888 48.491411-9.460466 85.294618-12.960173 71.809489-6.828522 134.898363-2.803859 187.886181 11.955286 9.945513 2.77009 15.548114 13.291724 12.214183 23.062252l0 0c-3.052522 8.947789-12.547781 14.028505-21.656229 11.496845-97.596805-27.128871-213.787084-7.42818-256.30034 1.52575C621.180632 596.276429 611.929943 590.583776 609.496521 581.346391z" p-id="47613"></path></svg>