<?xml version="1.0" standalone="no"?><!DOCTYPE svg PUBLIC "-//W3C//DTD SVG 1.1//EN" "http://www.w3.org/Graphics/SVG/1.1/DTD/svg11.dtd"><svg t="1502971691712" class="icon" style="" viewBox="0 0 1024 1024" version="1.1" xmlns="http://www.w3.org/2000/svg" p-id="24210" xmlns:xlink="http://www.w3.org/1999/xlink" width="200" height="200"><defs><style type="text/css"></style></defs><path d="M767.4 903.3c33.4 0 60.6-27.2 60.6-60.7V438.2L511.5 121.3 194.9 438.2v404.3c0 33.5 27.2 60.7 60.6 60.7h145.9V689.7H621.4v213.6h146m0 24.6H618.1c-1.3 0-2.5-0.5-3.7-0.7-9.9-1.8-17.5-10-17.6-20.4V714.4H426.2v192.2c0 11.8-9.5 21.3-21.3 21.3H255.5c-47.1 0-85.3-38.3-85.3-85.4V488.4L100 558.7c-4.2 4.2-9.6 6.2-15.1 6.2s-10.9-2.1-15.1-6.2c-8.3-8.3-8.3-21.9 0-30.2l106.6-106.7v-0.1l319.9-320.3c4.2-4.2 9.6-6.3 15.1-6.3s10.9 2.1 15.1 6.3l319.9 320.3 0.1 0.1 106.6 106.7c8.3 8.3 8.3 21.9 0 30.2-4.2 4.2-9.6 6.2-15.1 6.2s-10.9-2.1-15.1-6.2l-70.2-70.3v354.1c0 47.1-38.2 85.4-85.3 85.4z" p-id="24211"></path></svg>