<?xml version="1.0" standalone="no"?><!DOCTYPE svg PUBLIC "-//W3C//DTD SVG 1.1//EN" "http://www.w3.org/Graphics/SVG/1.1/DTD/svg11.dtd"><svg t="1502609292799" class="icon" style="" viewBox="0 0 1024 1024" version="1.1" xmlns="http://www.w3.org/2000/svg" p-id="17201" xmlns:xlink="http://www.w3.org/1999/xlink" width="200" height="200"><defs><style type="text/css"></style></defs><path d="M699 848.2c-8.4 0-16-5.6-18.1-14.1-12.1-47.9-36.2-89.2-69.9-119.7-7.6-6.9-8.2-18.7-1.3-26.4 6.9-7.6 18.7-8.3 26.4-1.3 39.1 35.4 67.1 83.2 81 138.2 2.5 10-3.5 20.1-13.5 22.7-1.5 0.4-3 0.6-4.6 0.6z m-410.8-0.1c-1.5 0-3.1-0.2-4.6-0.6-10-2.5-16-12.7-13.5-22.7 29.2-115.4 121.1-195.9 223.5-195.9 10.3 0 18.7 8.4 18.7 18.7 0 10.3-8.4 18.7-18.7 18.7-85.3 0-162.4 69-187.3 167.8-2.2 8.4-9.8 14-18.1 14z" p-id="17202"></path><path d="M493.6 666.6c-120.9 0-219.3-101.7-219.3-226.7 0-125 98.4-226.6 219.3-226.6S712.9 315 712.9 439.9c0 125-98.4 226.7-219.3 226.7z m0-416c-100.3 0-182 84.9-182 189.3s81.6 189.3 182 189.3c100.3 0 182-84.9 182-189.3s-81.7-189.3-182-189.3zM941.7 960c-4.8 0-9.6-1.8-13.2-5.5L779.1 805.2c-7.3-7.3-7.3-19.1 0-26.4 7.3-7.3 19.1-7.3 26.4 0l149.4 149.4c7.3 7.3 7.3 19.1 0 26.4-3.7 3.6-8.4 5.4-13.2 5.4z" p-id="17203"></path><path d="M493.6 101.2c216.2 0 392.1 175.9 392.1 392.1 0 216.2-175.9 392.1-392.1 392.1s-392-176-392-392.1c0-216.2 175.8-392.1 392-392.1m0-37.3c-237.2 0-429.4 192.2-429.4 429.4s192.2 429.4 429.4 429.4c237.1 0 429.4-192.2 429.4-429.4S730.8 63.9 493.6 63.9z" p-id="17204"></path></svg>