<?xml version="1.0" standalone="no"?><!DOCTYPE svg PUBLIC "-//W3C//DTD SVG 1.1//EN" "http://www.w3.org/Graphics/SVG/1.1/DTD/svg11.dtd"><svg t="1502971307584" class="icon" style="" viewBox="0 0 1024 1024" version="1.1" xmlns="http://www.w3.org/2000/svg" p-id="19002" xmlns:xlink="http://www.w3.org/1999/xlink" width="200" height="200"><defs><style type="text/css"></style></defs><path d="M885.692492 217.977523 205.239919 217.977523l0 465.657532c0 50.080605 40.739866 90.806145 90.806145 90.806145l64.932872 0 0 173.256996L511.472486 774.441201l374.218984 0c50.066279 0 90.791819-40.72554 90.791819-90.806145L976.483288 308.776506C976.483288 258.709203 935.757748 217.977523 885.692492 217.977523zM948.056865 683.635055c0 34.395368-27.983331 62.378699-62.364373 62.378699L498.507196 746.013755 389.407406 871.632777 389.407406 746.013755 296.046065 746.013755c-34.395368 0-62.378699-27.983331-62.378699-62.378699L233.667366 246.403946l652.024104 0c34.382065 0 62.364373 27.984355 62.364373 62.372559L948.055842 683.635055z" p-id="19003"></path><path d="M392.418996 450.580139c-24.555256 0-44.487214 19.932981-44.487214 44.50154 0 24.581861 19.931958 44.500517 44.487214 44.500517 24.582885 0 44.514843-19.918655 44.514843-44.500517C436.933839 470.51312 417.001881 450.580139 392.418996 450.580139z" p-id="19004"></path><path d="M590.854441 450.580139c-24.581861 0-44.514843 19.932981-44.514843 44.50154 0 24.581861 19.932981 44.500517 44.514843 44.500517 24.569582 0 44.514843-19.918655 44.514843-44.500517C635.369284 470.51312 615.424023 450.580139 590.854441 450.580139z" p-id="19005"></path><path d="M789.276582 450.580139c-24.554232 0-44.49847 19.932981-44.49847 44.50154 0 24.581861 19.944238 44.500517 44.49847 44.500517 24.569582 0 44.50154-19.918655 44.50154-44.500517C833.778122 470.51312 813.846164 450.580139 789.276582 450.580139z" p-id="19006"></path><path d="M81.508897 592.508615 81.508897 119.238708l621.487623 0c33.785477 0 59.519582 29.420053 59.519582 44.13929l28.427446 0c0-32.668027-40.572044-72.566736-87.947028-72.566736L53.081451 90.811262l0 501.697353c0 48.484248 39.46278 87.934748 87.947028 87.934748l0-28.427446C108.200816 652.014894 81.508897 625.320928 81.508897 592.508615z" p-id="19007"></path></svg>