<?xml version="1.0" standalone="no"?><!DOCTYPE svg PUBLIC "-//W3C//DTD SVG 1.1//EN" "http://www.w3.org/Graphics/SVG/1.1/DTD/svg11.dtd"><svg t="1502623424408" class="icon" style="" viewBox="0 0 1024 1024" version="1.1" xmlns="http://www.w3.org/2000/svg" p-id="2047" xmlns:xlink="http://www.w3.org/1999/xlink" width="200" height="200"><defs><style type="text/css"></style></defs><path d="M806.741333 619.861333c-75.605333 0-139.264 52.565333-155.989333 123.221334l-269.312-54.442667c0.341333-3.925333 0.512-8.021333 0.512-12.117333 0-34.816-11.093333-67.072-30.037333-93.354667l174.250666-187.733333c26.965333 20.48 60.586667 32.597333 96.938667 32.597333 88.405333 0 160.426667-72.021333 160.426667-160.426667s-72.021333-160.426667-160.426667-160.426666-160.426667 72.021333-160.426667 160.426666c0 44.714667 18.432 85.162667 47.957334 114.346667L338.602667 567.125333c-29.354667-31.402667-70.997333-51.029333-117.248-51.029333-88.405333 0-160.426667 72.021333-160.426667 160.426667s72.021333 160.426667 160.426667 160.426666c77.312 0 142.165333-54.954667 157.184-128l268.629333 54.272c-0.512 5.632-0.853333 11.264-0.853333 17.066667 0 88.405333 72.021333 160.426667 160.426666 160.426667s160.426667-72.021333 160.426667-160.426667-72.021333-160.426667-160.426667-160.426667zM496.810667 267.776c0-69.632 56.661333-126.293333 126.293333-126.293333s126.293333 56.661333 126.293333 126.293333-56.661333 126.293333-126.293333 126.293333-126.293333-56.661333-126.293333-126.293333zM221.525333 802.816c-69.632 0-126.293333-56.661333-126.293333-126.293333s56.661333-126.293333 126.293333-126.293334 126.293333 56.661333 126.293334 126.293334-56.661333 126.293333-126.293334 126.293333z m585.216 103.765333c-69.632 0-126.293333-56.661333-126.293333-126.293333s56.661333-126.293333 126.293333-126.293333 126.293333 56.661333 126.293334 126.293333-56.661333 126.293333-126.293334 126.293333z" fill="" p-id="2048"></path></svg>