<?xml version="1.0" standalone="no"?><!DOCTYPE svg PUBLIC "-//W3C//DTD SVG 1.1//EN" "http://www.w3.org/Graphics/SVG/1.1/DTD/svg11.dtd"><svg t="1502971415645" class="icon" style="" viewBox="0 0 1024 1024" version="1.1" xmlns="http://www.w3.org/2000/svg" p-id="22992" xmlns:xlink="http://www.w3.org/1999/xlink" width="200" height="200"><defs><style type="text/css"></style></defs><path d="M512 704C688.73112 704 832 560.73112 832 384 832 207.26888 688.73112 64 512 64 335.26888 64 192 207.26888 192 384 192 560.73112 335.26888 704 512 704L512 704ZM512 672C352.941992 672 224 543.058008 224 384 224 224.941992 352.941992 96 512 96 671.058008 96 800 224.941992 800 384 800 543.058008 671.058008 672 512 672ZM645.026446 692.020203C602.376296 678.798475 557.74051 672 512.208976 672 331.45573 672 169.742749 777.072835 99.367343 937.180378 95.811565 945.269949 99.486931 954.71037 107.576502 958.266147 115.666074 961.821925 125.106494 958.14656 128.662272 950.056989 193.919048 801.594584 344.122582 704 512.208976 704 554.518808 704 595.960864 710.312037 635.551166 722.585202 643.991458 725.201728 652.954779 720.480634 655.571306 712.040342 658.187832 703.600051 653.466738 694.63673 645.026446 692.020203ZM921.230947 937.296789C882.173094 849.016728 816.009427 776.72307 731.310301 729.145005 723.606043 724.817288 713.8522 727.554518 709.524485 735.258776 705.19677 742.963035 707.933998 752.716877 715.638256 757.044592 794.343584 801.25576 855.721576 868.320354 891.967154 950.244005 895.542427 958.324978 904.991683 961.977568 913.072658 958.402293 921.15363 954.827019 924.806221 945.377763 921.230947 937.296789L921.230947 937.296789Z" p-id="22993"></path></svg>