<?xml version="1.0" standalone="no"?><!DOCTYPE svg PUBLIC "-//W3C//DTD SVG 1.1//EN" "http://www.w3.org/Graphics/SVG/1.1/DTD/svg11.dtd"><svg t="1506048873753" class="icon" style="" viewBox="0 0 1024 1024" version="1.1" xmlns="http://www.w3.org/2000/svg" p-id="1555" xmlns:xlink="http://www.w3.org/1999/xlink" width="200" height="200"><defs><style type="text/css"></style></defs><path d="M512.175497 775.053138c12.68695 0 22.983457-10.296507 22.983457-22.982434L535.158954 430.314583c0-12.685927-10.296507-22.982434-22.982434-22.982434s-22.983457 10.296507-22.983457 22.982434l0 321.755098C489.193063 764.756631 499.48957 775.053138 512.175497 775.053138z" p-id="1556"></path><path d="M650.071124 775.053138c12.685927 0 22.982434-10.296507 22.982434-22.982434L673.053558 430.314583c0-12.685927-10.296507-22.982434-22.982434-22.982434s-22.982434 10.296507-22.982434 22.982434l0 321.755098C627.08869 764.756631 637.384174 775.053138 650.071124 775.053138z" p-id="1557"></path><path d="M374.280894 775.053138c12.685927 0 22.982434-10.296507 22.982434-22.982434L397.263327 430.314583c0-12.685927-10.296507-22.982434-22.982434-22.982434s-22.982434 10.296507-22.982434 22.982434l0 321.755098C351.29846 764.756631 361.593943 775.053138 374.280894 775.053138z" p-id="1558"></path><path d="M833.930595 154.525376 696.035992 154.525376 696.035992 108.559485c0-25.372877-20.590967-45.964868-45.964868-45.964868L374.280894 62.594617c-25.372877 0-45.965891 20.546965-45.965891 45.964868l0 45.964868L190.420399 154.524352c-25.372877 0-45.964868 20.591991-45.964868 45.964868l0 45.964868c0 25.372877 20.591991 45.964868 45.964868 45.964868l0 574.563918c0 50.745754 41.138956 91.928712 91.930759 91.928712l459.650725 0.002047c50.745754 0 91.929736-41.138956 91.929736-91.930759L833.931618 292.419979c25.372877 0 45.965891-20.545942 45.965891-45.964868l0-45.964868C879.896486 175.117366 859.303472 154.525376 833.930595 154.525376zM374.280894 129.496329c0-12.685927 10.296507-22.982434 22.982434-22.982434l229.825362 0c12.68695 0 22.982434 10.296507 22.982434 22.982434l0 22.982434c-22.246677 0-275.79023 0-275.79023 0L374.280894 129.496329zM787.966751 866.983897c0 25.372877-20.593014 45.963845-45.965891 45.963845L282.351158 912.947741c-25.3739 0-45.965891-20.590967-45.965891-45.963845L236.385267 292.419979c31.578206 0 525.748119 0 551.582507 0L787.967774 866.983897zM810.948161 246.455111 213.402833 246.455111c-12.685927 0-22.982434-10.296507-22.982434-22.981411 0-12.685927 10.296507-22.982434 22.982434-22.982434l597.546352 0c12.685927 0 22.982434 10.296507 22.982434 22.982434C833.930595 236.158604 823.635111 246.455111 810.948161 246.455111z" p-id="1559"></path></svg>