<?xml version="1.0" standalone="no"?><!DOCTYPE svg PUBLIC "-//W3C//DTD SVG 1.1//EN" "http://www.w3.org/Graphics/SVG/1.1/DTD/svg11.dtd"><svg t="1506049923911" class="icon" style="" viewBox="0 0 1024 1024" version="1.1" xmlns="http://www.w3.org/2000/svg" p-id="5598" xmlns:xlink="http://www.w3.org/1999/xlink" width="200" height="200"><defs><style type="text/css"></style></defs><path d="M752.166 939.395c-10.358 0-20.767-2.584-30.156-7.47l-207.612-103.27-209.435 103.497c-20.254 10.81-48.248 8.914-67.817-5.519-19.747-14.204-29.93-39.446-25.832-64.055l43.181-224.131L89.784 484.698c-18.092-17.828-24.52-44.276-16.842-67.795 7.453-23.687 27.482-40.937 52.177-44.675l228.604-41.916 102.469-208.436c11.15-22.597 33.511-36.625 58.263-36.625 24.634 0 47.51 14.432 58.206 36.8l102.412 208.145 229.234 40.71c24.121 3.619 44.15 20.754 51.717 44.676 7.621 23.398 1.193 49.851-16.386 67.157L774.412 638.447l41.763 223.728c4.267 24.843-5.921 50.084-26.001 64.688-10.869 7.992-24.47 12.532-38.008 12.532zM514.455 777.421l228.04 113.39c7.452 3.966 15.019 3.105 20.934-1.207 6.091-4.487 9.16-11.962 7.91-19.262l-46.369-248.28 183.204-172.67c4.836-4.773 6.772-12.595 4.492-19.61-2.33-7.299-8.303-12.42-15.756-13.51l-252.392-44.733-112.765-229.193c-6.546-13.625-28.107-13.568-34.822 0.061L384.334 371.425l-251.763 46.228c-8.082 1.208-14.055 6.384-16.272 13.512-2.393 7.185-0.4 15.007 4.835 20.24L304 622.118l-47.91 248.741c-1.137 6.839 1.88 14.371 7.74 18.626 6.204 4.601 14.225 5.119 20.653 1.671l229.972-113.735z m0 0" p-id="5599"></path></svg>