<?xml version="1.0" standalone="no"?><!DOCTYPE svg PUBLIC "-//W3C//DTD SVG 1.1//EN" "http://www.w3.org/Graphics/SVG/1.1/DTD/svg11.dtd"><svg t="1503763086012" class="icon" style="" viewBox="0 0 1024 1024" version="1.1" xmlns="http://www.w3.org/2000/svg" p-id="3343" xmlns:xlink="http://www.w3.org/1999/xlink" width="200" height="200"><defs><style type="text/css"></style></defs><path d="M512.25 608.81c-41.925 0-76.028-33.34-76.028-74.327 0-40.987 34.105-74.327 76.028-74.327 41.931 0 76.043 33.341 76.043 74.327 0 40.989-34.111 74.327-76.043 74.327z m0-187.186c-63.652 0-115.433 50.628-115.433 112.858s51.781 112.855 115.433 112.855c63.658 0 115.451-50.624 115.451-112.855S575.908 421.624 512.25 421.624z m180.409 290.877c46.944-45.472 76.075-108.484 76.075-178.034 0-69.466-29.063-132.411-75.897-177.862 120.707 53.946 212.681 145.033 243.43 177.883-30.734 32.899-122.71 124.1-243.608 178.012zM88.248 534.474c30.734-32.898 122.709-124.112 243.597-178.032-46.936 45.472-76.067 108.475-76.067 178.024 0 69.477 29.063 132.426 75.909 177.884-120.716-53.936-212.689-145.018-243.438-177.877zM512.25 746.703c-119.693 0-217.066-95.21-217.066-212.237 0-117.016 97.374-212.219 217.066-212.219 119.698 0 217.077 95.203 217.077 212.219 0.001 117.026-97.378 212.237-217.077 212.237z m465.493-224.488c-8.472-10.028-210.45-245.734-465.493-245.734-255.041 0-457.005 235.706-465.474 245.733a18.93 18.93 0 0 0 0 24.531C55.245 556.776 257.21 792.46 512.25 792.46c255.043 0 457.02-235.683 465.493-245.715 6.012-7.114 6.012-17.409 0-24.53z" p-id="3344"></path></svg>