<?xml version="1.0" standalone="no"?><!DOCTYPE svg PUBLIC "-//W3C//DTD SVG 1.1//EN" "http://www.w3.org/Graphics/SVG/1.1/DTD/svg11.dtd"><svg t="1505208501161" class="icon" style="" viewBox="0 0 1024 1024" version="1.1" xmlns="http://www.w3.org/2000/svg" p-id="1550" xmlns:xlink="http://www.w3.org/1999/xlink" width="200" height="200"><defs><style type="text/css"></style></defs><path d="M422.103753 955.433505l38.994028 0L461.097782 749.320606c0-16.71158 5.570868-27.853316 11.141736-38.993005 5.570868-5.570868 438.164512-558.528617 438.164512-558.528617S789.764656 821.739841 789.764656 827.309685s-5.570868 11.141736-11.141736 5.569845c-5.569845 0-250.678818-89.129792-250.678818-89.129792l-16.71158 44.564896c0 0 233.966215 83.559947 256.248663 89.129792 27.853316 11.142759 50.135764-11.140712 55.706631-44.564896 5.568821-22.282448 128.12382-713.039357 133.693664-724.18007 0-11.141736 5.570868-27.853316-11.141736-38.995051-16.71158-5.569845-33.42316 11.141736-33.42316 11.141736S115.718304 532.066994 87.866011 548.779598c-27.852292 16.71158-27.852292 50.13474-5.569845 61.276476 22.282448 11.140712 261.818507 100.271527 261.818507 100.271527l11.141736-38.995051-233.966215-89.129792L875.610665 145.65916c0 0-408.943039 508.96181-425.654619 531.244258-16.71158 22.281425-27.853316 44.564896-27.853316 72.418212L422.10273 955.433505" p-id="1551"></path></svg>