<?xml version="1.0" standalone="no"?><!DOCTYPE svg PUBLIC "-//W3C//DTD SVG 1.1//EN" "http://www.w3.org/Graphics/SVG/1.1/DTD/svg11.dtd"><svg t="1505203970113" class="icon" style="" viewBox="0 0 1024 1024" version="1.1" xmlns="http://www.w3.org/2000/svg" p-id="9782" xmlns:xlink="http://www.w3.org/1999/xlink" width="200" height="200"><defs><style type="text/css"></style></defs><path d="M85.333333 896l170.666667 0L256 384 85.333333 384 85.333333 896zM128 426.666667l85.333333 0 0 426.666667L128 853.333333 128 426.666667zM838.4 341.333333 597.333333 341.333333l44.8-89.6C689.066667 155.733333 620.8 42.666667 512 42.666667L298.666667 384l51.2 0L533.333333 87.466667c27.733333 6.4 51.2 21.333333 64 46.933333 19.2 29.866667 21.333333 68.266667 4.266667 100.266667l-44.8 89.6L529.066667 384 597.333333 384l241.066667 0c12.8 0 23.466667 4.266667 32 14.933333 8.533333 8.533333 10.666667 21.333333 10.666667 34.133333l-59.733333 384c-4.266667 21.333333-21.333333 36.266667-42.666667 36.266667L384 853.333333l-42.666667 0-42.666667 0 0 42.666667 480 0c42.666667 0 78.933333-29.866667 85.333333-72.533333l59.733333-384C932.266667 388.266667 891.733333 341.333333 838.4 341.333333z" p-id="9783"></path></svg>