<?xml version="1.0" standalone="no"?><!DOCTYPE svg PUBLIC "-//W3C//DTD SVG 1.1//EN" "http://www.w3.org/Graphics/SVG/1.1/DTD/svg11.dtd"><svg t="1503763061721" class="icon" style="" viewBox="0 0 1024 1024" version="1.1" xmlns="http://www.w3.org/2000/svg" p-id="2677" xmlns:xlink="http://www.w3.org/1999/xlink" width="200" height="200"><defs><style type="text/css"></style></defs><path d="M800.13642 532.707624c-9.884115 0.339738-17.621333 8.629541-17.280572 18.513656 0.802272 23.327288-1.188058 46.838771-5.916756 69.883627-15.871479 77.337389-60.905138 143.863549-126.807081 187.321316-48.865941 32.224935-104.860233 48.906873-162.075329 48.904827-19.945261-0.001023-40.046065-2.028193-60.035328-6.131651-77.329203-15.867386-143.849222-60.896952-187.30699-126.792755-43.458791-65.897849-58.650795-144.776338-42.779316-222.10861 14.031575-68.393693 51.940976-129.781832 106.747209-172.85279 54.1769-42.576701 121.733529-65.028039 190.18862-63.22395 9.877975 0.294712 18.11252-7.541767 18.373463-17.428951 0.260943-9.887184-7.541767-18.11252-17.428951-18.373463-76.81141-2.038426-152.537092 23.140023-213.265198 70.866001-61.458747 48.300053-103.969956 117.131721-119.701243 193.813171-17.795295 86.702688-0.760317 175.141926 47.965431 249.025657 48.724725 73.882708 123.30635 124.369565 210.004945 142.159744 22.415522 4.601808 44.941562 6.875594 67.308989 6.875594 64.143902-0.002047 126.934994-18.705014 181.720761-54.831816 73.887824-48.724725 124.379798-123.31249 142.17407-210.022341 5.297656-25.813922 7.526417-52.163033 6.626931-78.31567C818.310338 540.105105 810.049187 532.329001 800.13642 532.707624z" p-id="2678"></path><path d="M867.717607 244.533342l-107.154485-88.954985c-0.033769-0.028653-0.068562-0.057305-0.103354-0.084934-2.672876-2.184759-12.423961-8.653077-25.684986-0.115634-3.721765 2.39556-7.482415 5.831822-10.914584 9.984399L445.186292 504.919744c-7.887644 9.507538-10.121522 17.298991-9.862625 23.302729L381.973598 700.753945c-2.153036 6.960529 0.12689 14.529925 5.763261 19.146059 3.27151 2.679016 7.296173 4.052293 11.348466 4.052293 2.928702 0 5.873778-0.717338 8.55791-2.179642l157.733441-85.85539c5.894244-0.918929 13.039991-4.573155 20.816095-13.919011 0.024559-0.030699 0.051165-0.062422 0.075725-0.093121l6.826476-8.318456c0.677429-0.701988 1.299599-1.455141 1.856277-2.26253L864.974124 282.295388C879.459023 264.823458 875.528504 251.052826 867.717607 244.533342zM465.761909 551.026852c2.241041 3.817955 4.754281 7.728008 7.577582 11.651364 12.372795 17.196661 32.44904 37.054941 63.321164 48.092321l-107.459431 58.491159L465.761909 551.026852zM572.269665 582.505797c-58.31515-7.190773-79.501682-52.872185-85.767386-71.473845l261.84359-319.048453 85.894276 71.306023L572.269665 582.505797z" p-id="2679"></path></svg>